<?xml version="1.0" encoding="UTF-8"?>
<!DOCTYPE svg PUBLIC "-//W3C//DTD SVG 1.1//EN" "http://www.w3.org/Graphics/SVG/1.1/DTD/svg11.dtd">
<svg xmlns="http://www.w3.org/2000/svg" version="1.1" width="512px" height="512px" style="shape-rendering:geometricPrecision; text-rendering:geometricPrecision; image-rendering:optimizeQuality; fill-rule:evenodd; clip-rule:evenodd" xmlns:xlink="http://www.w3.org/1999/xlink">
<g><path style="opacity:1" fill="#209cee" d="M 40.5,-0.5 C 183.833,-0.5 327.167,-0.5 470.5,-0.5C 491.833,5.5 505.5,19.1667 511.5,40.5C 511.5,183.833 511.5,327.167 511.5,470.5C 505.5,491.833 491.833,505.5 470.5,511.5C 327.167,511.5 183.833,511.5 40.5,511.5C 19.1667,505.5 5.5,491.833 -0.5,470.5C -0.5,327.167 -0.5,183.833 -0.5,40.5C 5.5,19.1667 19.1667,5.5 40.5,-0.5 Z"/></g>
<g><path style="opacity:1" fill="#fdfefe" d="M 235.5,48.5 C 274.715,45.4775 311.715,52.9775 346.5,71C 399.14,104.259 425.473,152.259 425.5,215C 426.946,274.432 404.279,322.098 357.5,358C 326.49,377.923 292.49,388.256 255.5,389C 244.336,395.831 240.17,405.665 243,418.5C 247.135,427.607 254.302,432.441 264.5,433C 313.166,433.5 361.832,433.667 410.5,433.5C 410.5,443.5 410.5,453.5 410.5,463.5C 360.832,463.667 311.166,463.5 261.5,463C 222.935,460.117 206.102,439.617 211,401.5C 213.016,395.297 216.183,389.797 220.5,385C 143.351,368.182 98.8512,320.682 87,242.5C 80.0489,189.502 93.3822,142.502 127,101.5C 156.674,70.5797 192.841,52.9131 235.5,48.5 Z"/></g>
<g><path style="opacity:1" fill="#209cee" d="M 239.5,80.5 C 275.032,77.7162 307.698,85.8829 337.5,105C 373.229,132.964 390.896,169.797 390.5,215.5C 391.857,257.253 377.857,292.753 348.5,322C 310.886,352.506 268.22,362.506 220.5,352C 164.228,335.669 131.394,298.502 122,240.5C 114.516,188.273 130.016,144.44 168.5,109C 189.562,92.9256 213.229,83.4256 239.5,80.5 Z"/></g>
</svg>
